<svg xmlns="http://www.w3.org/2000/svg" viewBox="0 0 240 64" fill="none" role="img" aria-label="Apex">
  <defs>
    <linearGradient id="apex-bg" x1="10" y1="6" x2="54" y2="58" gradientUnits="userSpaceOnUse">
      <stop stop-color="#4f46e5"/>
      <stop offset="0.5" stop-color="#7c3aed"/>
      <stop offset="1" stop-color="#a855f7"/>
    </linearGradient>
    <linearGradient id="apex-peak" x1="32" y1="12" x2="32" y2="48" gradientUnits="userSpaceOnUse">
      <stop stop-color="#ffffff"/>
      <stop offset="1" stop-color="#e0e7ff"/>
    </linearGradient>
    <linearGradient id="apex-glow" x1="32" y1="8" x2="32" y2="20" gradientUnits="userSpaceOnUse">
      <stop stop-color="#6ee7b7"/>
      <stop offset="1" stop-color="#10b981"/>
    </linearGradient>
    <linearGradient id="apex-word" x1="72" y1="18" x2="220" y2="46" gradientUnits="userSpaceOnUse">
      <stop stop-color="#f8fafc"/>
      <stop offset="0.45" stop-color="#c7d2fe"/>
      <stop offset="1" stop-color="#818cf8"/>
    </linearGradient>
  </defs>

  <g transform="translate(0 0)">
    <rect x="4" y="4" width="56" height="56" rx="17" fill="url(#apex-bg)"/>
    <path d="M32 13 L17 47 H24.2 L27.2 39.2 H36.8 L39.8 47 H47 L32 13 Z M30.2 33.2 L32 28.2 L33.8 33.2 H30.2 Z" fill="url(#apex-peak)"/>
    <circle cx="32" cy="13" r="3.2" fill="url(#apex-glow)"/>
    <rect x="18" y="51.5" width="7" height="3" rx="1.5" fill="#10b981"/>
    <rect x="28.5" y="51.5" width="7" height="3" rx="1.5" fill="rgba(255,255,255,0.38)"/>
    <rect x="39" y="51.5" width="7" height="3" rx="1.5" fill="rgba(255,255,255,0.22)"/>
  </g>

  <text x="72" y="41" fill="url(#apex-word)" font-family="Outfit, Segoe UI, sans-serif" font-size="36" font-weight="800" letter-spacing="-0.04em">Apex</text>
  <text x="73" y="54" fill="#94a3b8" font-family="Inter, Segoe UI, sans-serif" font-size="10.5" font-weight="600" letter-spacing="0.18em">AU SOMMET DU PARKING</text>
</svg>
